<svg width="451" height="112" viewBox="0 0 451 112" fill="none" xmlns="http://www.w3.org/2000/svg">
<path d="M38.7477 109.448L38.8647 109.783H39.2197H61.5516H61.907L62.0238 109.448L99.1004 2.88081L99.3315 2.21651H98.6281H77.4415H77.0803L76.9668 2.55944L50.3141 83.1091L23.6613 2.55944L23.5478 2.21651H23.1866H2H1.29575L1.52796 2.88138L38.7477 109.448ZM110.048 109.283V109.783H110.548H130.017H130.517V109.283V2.71651V2.21651H130.017H110.548H110.048V2.71651V109.283ZM150.03 109.283V109.783H150.53H185.316C196.644 109.783 206.511 107.529 214.9 103L214.902 102.999C223.378 98.3795 229.937 92.0209 234.565 83.927L234.566 83.9248C239.195 75.7355 241.503 66.3989 241.503 55.9285C241.503 45.3638 239.195 36.0725 234.564 28.0707C229.935 19.978 223.377 13.6674 214.901 9.14304C206.512 4.51899 196.645 2.21651 185.316 2.21651H150.53H150.03V2.71651V109.283ZM204.253 24.7517L204.257 24.7535C209.519 27.6643 213.603 31.7449 216.515 37.003C219.425 42.2546 220.891 48.5566 220.891 55.9285C220.891 63.2028 219.426 69.5065 216.514 74.8559C213.601 80.1142 209.516 84.2432 204.251 87.2494C199.092 90.1549 192.929 91.6183 185.746 91.6183H170.499V20.3817H185.746C192.93 20.3817 199.093 21.8454 204.253 24.7517ZM255.997 109.283V109.783H256.497H327.357H327.857V109.283V92.1183V91.6183H327.357H276.465V64.868H324.494H324.994V64.368V47.2029V46.7029H324.494H276.465V20.3817H327.357H327.857V19.8817V2.71651V2.21651H327.357H256.497H255.997V2.71651V109.283ZM342.173 78.0033L342.176 78.0111C345.064 84.7449 349.061 90.6167 354.167 95.6223C359.273 100.628 365.245 104.526 372.079 107.315C378.919 110.106 386.284 111.5 394.17 111.5C402.151 111.5 409.517 110.107 416.264 107.314C423.097 104.525 429.068 100.628 434.174 95.6223C439.28 90.6167 443.277 84.7449 446.165 78.0111L446.166 78.0088C449.057 71.1726 450.5 63.8107 450.5 55.9285C450.5 47.9536 449.058 40.5921 446.167 33.8503C443.374 27.1144 439.423 21.2879 434.315 16.3759C429.21 11.371 423.238 7.47415 416.405 4.68531C409.564 1.89339 402.151 0.5 394.17 0.5C386.191 0.5 378.779 1.89293 371.939 4.68402C365.104 7.37793 359.13 11.2282 354.024 16.2346C348.917 21.2415 344.966 27.1152 342.174 33.8514C339.378 40.593 337.984 47.954 337.984 55.9285C337.984 63.8085 339.379 71.1684 342.173 78.0033ZM419.728 82.3238L419.723 82.329C416.526 85.6175 412.764 88.2026 408.434 90.0845C404.111 91.8677 399.359 92.7627 394.17 92.7627C389.078 92.7627 384.373 91.8681 380.05 90.0844C375.72 88.2025 371.909 85.6168 368.616 82.3264C365.421 79.0392 362.927 75.1393 361.137 70.6208C359.349 66.1068 358.453 61.2111 358.453 55.9285C358.453 50.6458 359.349 45.7991 361.136 41.3826L361.137 41.3792C362.928 36.8595 365.422 32.9588 368.618 29.6712C371.911 26.2866 375.719 23.703 380.046 21.9173C384.37 20.1325 389.077 19.2373 394.17 19.2373C399.361 19.2373 404.115 20.1329 408.438 21.9173C412.763 23.7024 416.522 26.2845 419.718 29.6659L419.723 29.6711L419.728 29.6762C423.016 32.9616 425.506 36.8578 427.2 41.3708L427.205 41.3826C428.991 45.7991 429.888 50.6458 429.888 55.9285C429.888 61.2111 428.991 66.1068 427.203 70.6208L427.2 70.6293C425.506 75.1422 423.016 79.0384 419.728 82.3238Z" fill="url(#paint0_linear_3947_91941)" stroke="url(#paint1_linear_3947_91941)"/>
<defs>
<linearGradient id="paint0_linear_3947_91941" x1="226.475" y1="-50" x2="226.475" y2="184" gradientUnits="userSpaceOnUse">
<stop offset="0.241413" stop-color="#D9D9D9" stop-opacity="0"/>
<stop offset="1" stop-color="#F2F2F2"/>
</linearGradient>
<linearGradient id="paint1_linear_3947_91941" x1="226.475" y1="-62" x2="226.475" y2="131" gradientUnits="userSpaceOnUse">
<stop stop-color="#DDDDDD" stop-opacity="0"/>
<stop offset="0.916667" stop-color="#DDDDDD"/>
</linearGradient>
</defs>
</svg>
