<svg width="300" height="112" viewBox="0 0 300 112" fill="none" xmlns="http://www.w3.org/2000/svg">
<path d="M0.5 111V111.5H1H68.1812H68.6812V111V93.2819V92.7819H68.1812H21.5805V1V0.5H21.0805H1H0.5V1V111ZM80.6699 111V111.5H81.1699H101.25H101.75V111V1V0.5H101.25H81.1699H80.6699V1V111ZM151.319 111.165L151.436 111.5H151.791H174.824H175.18L175.297 111.164L213.538 1.16419L213.769 0.5H213.066H191.214H190.852L190.739 0.843041L163.234 84.0326L135.729 0.843041L135.615 0.5H135.254H113.402H112.698L112.93 1.16475L151.319 111.165ZM224.86 111V111.5H225.36H298.448H298.948V111V93.2819V92.7819H298.448H245.941V65.1376H295.495H295.995V64.6376V46.9195V46.4195H295.495H245.941V19.2181H298.448H298.948V18.7181V1V0.5H298.448H225.36H224.86V1V111Z" stroke="#DDDDDD"/>
</svg>
