<svg width="382" height="112" viewBox="0 0 382 112" fill="none" xmlns="http://www.w3.org/2000/svg">
<path d="M32.843 107.311L32.8455 107.312L74.6671 107.138L74.8615 107.599C74.8617 107.598 74.8619 107.598 74.8621 107.598C81.0176 105.001 86.2228 101.582 90.4693 97.3354L90.4733 97.3314C94.7135 92.9947 97.7592 88.2618 99.5981 83.1323L99.7519 82.7034L99.3391 82.5106L81.8879 74.3571L81.3979 74.1282L81.2081 74.6346C79.2411 79.8798 75.9177 84.2363 71.2252 87.7094C66.5553 91.0708 60.893 92.7627 54.212 92.7627C47.6192 92.7627 41.7994 91.2099 36.7368 88.1165C31.765 85.0203 27.8694 80.7521 25.0485 75.3001C22.324 69.7551 20.9538 63.3023 20.9538 55.9285C20.9538 48.5537 22.3244 42.1495 25.0478 36.7013C27.8688 31.2485 31.7647 26.9798 36.7371 23.8833C41.7996 20.79 47.6193 19.2373 54.212 19.2373C60.8914 19.2373 66.5526 20.9759 71.2227 24.4319L71.228 24.4357C75.9186 27.8129 79.2412 32.1205 81.2081 37.3654L81.3979 37.8718L81.8879 37.6429L99.3391 29.4894L99.7519 29.2966L99.5981 28.8677C97.7591 23.7378 94.7129 19.0518 90.4714 14.8098C86.225 10.4675 81.0193 6.99949 74.8627 4.40201C68.7835 1.79687 61.8969 0.5 54.212 0.5C46.5223 0.5 39.3991 1.89386 32.8484 4.68709C26.303 7.38266 20.5731 11.2347 15.6625 16.2416L15.6625 16.2416C10.8444 21.1561 7.08998 27.0309 4.39701 33.8595L4.39566 33.863C1.79651 40.6015 0.5 47.9584 0.5 55.9285C0.5 63.9007 1.84493 71.2597 4.54096 77.9997C7.23392 84.7321 10.9874 90.6045 15.8021 95.6119L15.8056 95.6154C20.7144 100.62 26.3946 104.52 32.843 107.311ZM114.421 109.283V109.783H114.921H134.375H134.875V109.283V66.8706H179.22V109.283V109.783H179.72H199.317H199.817V109.283V2.71651V2.21651H199.317H179.72H179.22V2.71651V48.7055H134.875V2.71651V2.21651H134.375H114.921H114.421V2.71651V109.283ZM210.631 109.12L210.402 109.783H211.103H232.131H232.489L232.604 109.443L240.214 86.8966H280.69L288.158 109.441L288.271 109.783H288.633H309.803H310.504L310.276 109.12L273.513 2.55346L273.397 2.21651H273.041H247.865H247.509L247.393 2.55346L210.631 109.12ZM246.128 68.7315L260.453 25.8714L274.778 68.7315H246.128ZM332.921 109.283V109.783H333.421H353.017H353.517V109.283V20.3817H380.196H380.696V19.8817V2.71651V2.21651H380.196H305.813H305.313V2.71651V19.8817V20.3817H305.813H332.921V109.283Z" stroke="#DDDDDD"/>
</svg>
