<svg width="468" height="112" viewBox="0 0 468 112" fill="none" xmlns="http://www.w3.org/2000/svg">
<path d="M377.3 41.1951C379.112 36.6177 381.639 32.6602 384.881 29.3225L377.3 41.1951ZM377.3 41.1951C375.488 45.6771 374.582 50.5882 374.582 55.9285C374.582 61.2688 375.488 66.2276 377.3 70.8049C379.112 75.3823 381.639 79.3398 384.881 82.6775L377.3 41.1951ZM1.52733 109.12L1.2986 109.783H2H23.0273H23.3863L23.5011 109.443L31.1106 86.8966H71.5869L79.0546 109.441L79.1682 109.783H79.5293H100.7H101.401L101.172 109.12L64.4102 2.55346L64.294 2.21651H63.9376H38.762H38.4056L38.2894 2.55346L1.52733 109.12ZM37.0246 68.7315L51.3498 25.8714L65.675 68.7315H37.0246ZM128.694 106.289L128.697 106.291C135.168 109.768 142.547 111.5 150.819 111.5C159.091 111.5 166.423 109.768 172.8 106.29C179.265 102.816 184.338 98.0343 188.01 91.9475C191.684 85.855 193.517 78.9458 193.517 71.2341V2.71651V2.21651H193.017H173.563H173.063V2.71651V70.2328C173.063 74.5401 172.081 78.4114 170.124 81.8585L170.119 81.8676C168.256 85.3154 165.651 88.013 162.299 89.9689C159.049 91.8255 155.228 92.7627 150.819 92.7627C146.51 92.7627 142.686 91.8269 139.337 89.9673C135.986 88.0111 133.333 85.3125 131.374 81.8627C129.511 78.4153 128.576 74.5423 128.576 70.2328V2.71651V2.21651H128.076H108.622H108.122V2.71651V71.2341C108.122 78.9458 109.954 85.855 113.629 91.9475C117.3 98.0329 122.324 102.815 128.694 106.289ZM211.938 109.283V109.783H212.438H247.198C258.518 109.783 268.377 107.529 276.759 103L276.761 102.999C285.231 98.3794 291.785 92.0207 296.41 83.9269L296.411 83.9247C301.035 75.7354 303.342 66.3988 303.342 55.9285C303.342 45.3639 301.036 36.0726 296.408 28.0709C291.783 19.9781 285.23 13.6675 276.76 9.14314C268.378 4.51902 258.518 2.21651 247.198 2.21651H212.438H211.938V2.71651V109.283ZM266.12 24.7516L266.123 24.7534C271.382 27.6642 275.462 31.7448 278.373 37.0029C281.28 42.2545 282.745 48.5566 282.745 55.9285C282.745 63.2029 281.281 69.5067 278.372 74.8562C275.461 80.1142 271.379 84.243 266.119 87.249C260.963 90.1548 254.806 91.6183 247.627 91.6183H232.392V20.3817H247.627C254.806 20.3817 260.964 21.8454 266.12 24.7516ZM317.824 109.283V109.783H318.324H337.778H338.278V109.283V2.71651V2.21651H337.778H318.324H317.824V2.71651V109.283ZM358.814 78.0031L358.817 78.011C361.703 84.7447 365.697 90.6165 370.799 95.6222C375.901 100.628 381.869 104.525 388.697 107.315C395.532 110.106 402.892 111.5 410.772 111.5C418.746 111.5 426.107 110.107 432.849 107.314C439.677 104.525 445.644 100.627 450.745 95.6222C455.847 90.6165 459.841 84.7447 462.727 78.011L462.728 78.0087C465.616 71.1725 467.059 63.8107 467.059 55.9285C467.059 47.9528 465.617 40.5907 462.728 33.8484C459.937 27.1134 455.99 21.2876 450.886 16.376C445.785 11.3711 439.818 7.47424 432.99 4.68536C426.154 1.8934 418.746 0.5 410.772 0.5C402.799 0.5 395.392 1.89295 388.557 4.68405C381.727 7.378 375.759 11.2283 370.656 16.2348C365.553 21.2417 361.605 27.1154 358.815 33.8515C356.022 40.5931 354.628 47.9541 354.628 55.9285C354.628 63.8085 356.022 71.1683 358.814 78.0031ZM436.309 82.3239L436.304 82.3291C433.109 85.6177 429.351 88.2027 425.024 90.0846C420.705 91.8677 415.956 92.7627 410.772 92.7627C405.684 92.7627 400.983 91.8681 396.663 90.0845C392.336 88.2026 388.528 85.617 385.237 82.3267C382.045 79.0395 379.553 75.1395 377.765 70.6209C375.978 66.1069 375.082 61.2111 375.082 55.9285C375.082 50.6457 375.978 45.799 377.763 41.3825L377.765 41.3791C379.554 36.8594 382.046 32.9586 385.24 29.671C388.53 26.2865 392.335 23.7029 396.659 21.9173C400.98 20.1324 405.682 19.2373 410.772 19.2373C415.958 19.2373 420.708 20.1329 425.028 21.9173C429.35 23.7023 433.106 26.2844 436.299 29.6658L436.304 29.671L436.309 29.6761C439.595 32.9614 442.083 36.8576 443.776 41.3707L443.78 41.3825C445.566 45.799 446.462 50.6457 446.462 55.9285C446.462 61.2111 445.566 66.1069 443.779 70.6209L443.776 70.6294C442.083 75.1424 439.595 79.0386 436.309 82.3239Z" fill="url(#paint0_linear_3947_92062)" stroke="url(#paint1_linear_3947_92062)"/>
<defs>
<linearGradient id="paint0_linear_3947_92062" x1="234.772" y1="-50" x2="234.772" y2="184" gradientUnits="userSpaceOnUse">
<stop offset="0.241413" stop-color="#D9D9D9" stop-opacity="0"/>
<stop offset="1" stop-color="#F2F2F2"/>
</linearGradient>
<linearGradient id="paint1_linear_3947_92062" x1="234.772" y1="-62" x2="234.772" y2="131" gradientUnits="userSpaceOnUse">
<stop stop-color="#DDDDDD" stop-opacity="0"/>
<stop offset="0.916667" stop-color="#DDDDDD"/>
</linearGradient>
</defs>
</svg>
