<svg width="107" height="28" viewBox="0 0 107 28" fill="none" xmlns="http://www.w3.org/2000/svg">
<g clip-path="url(#clip0_4162_70939)">
<path d="M14.3939 0.561523C11.6908 0.561523 9.04834 1.34063 6.80076 2.80031C4.55317 4.25999 2.80139 6.3347 1.76694 8.76206C0.732485 11.1894 0.461824 13.8604 0.989183 16.4373C1.51654 19.0142 2.81823 21.3812 4.72965 23.239C6.64106 25.0969 9.07636 26.3621 11.7276 26.8746C14.3788 27.3871 17.1268 27.1242 19.6242 26.1188C22.1216 25.1132 24.2562 23.4106 25.7579 21.226C27.2597 19.0414 28.0613 16.4731 28.0613 13.8457C28.0613 10.3225 26.6213 6.94364 24.0582 4.45237C21.4951 1.9611 18.0188 0.561523 14.3939 0.561523ZM14.3939 25.0862C12.1067 25.0862 9.87076 24.4269 7.96895 23.1918C6.06714 21.9567 4.58485 20.2012 3.70955 18.1472C2.83425 16.0933 2.60523 13.8332 3.05146 11.6528C3.49767 9.47235 4.59911 7.4695 6.21646 5.89749C7.83383 4.32549 9.89446 3.25493 12.1378 2.82122C14.3811 2.38751 16.7064 2.61011 18.8196 3.46088C20.9327 4.31164 22.7389 5.75236 24.0096 7.60085C25.2804 9.44931 25.9586 11.6226 25.9586 13.8457C25.9586 16.8268 24.7402 19.6859 22.5714 21.7939C20.4026 23.9019 17.4611 25.0862 14.3939 25.0862Z" fill="black"/>
<path d="M8.9156 13.5791C9.01331 13.6749 9.1296 13.7509 9.25771 13.8028C9.38583 13.8546 9.52324 13.8814 9.66204 13.8814C9.80083 13.8814 9.93825 13.8546 10.0664 13.8028C10.1945 13.7509 10.3107 13.6749 10.4085 13.5791L12.8791 11.1777C13.3434 10.72 13.6265 10.1177 13.6785 9.477C13.7306 8.83628 13.5482 8.19826 13.1636 7.67544C12.779 7.15259 12.2169 6.7785 11.5763 6.61911C10.9357 6.45972 10.2578 6.52525 9.66204 6.80414C9.06537 6.50804 8.37914 6.42995 7.72825 6.5841C7.07735 6.73827 6.505 7.11442 6.11537 7.64413C5.72573 8.17383 5.54468 8.8219 5.60518 9.47039C5.66565 10.1189 5.96365 10.7247 6.44494 11.1777L8.9156 13.5791ZM7.92733 8.73547C7.99114 8.67056 8.06781 8.61889 8.15275 8.58358C8.23767 8.54827 8.3291 8.53007 8.42145 8.53007C8.51383 8.53007 8.60523 8.54827 8.69017 8.58358C8.77509 8.61889 8.85178 8.67056 8.9156 8.73547C9.01331 8.83124 9.1296 8.90727 9.25771 8.95914C9.38583 9.01103 9.52324 9.03773 9.66204 9.03773C9.80083 9.03773 9.93825 9.01103 10.0664 8.95914C10.1945 8.90727 10.3107 8.83124 10.4085 8.73547C10.473 8.67183 10.55 8.6213 10.6348 8.58678C10.7196 8.55229 10.8107 8.53454 10.9026 8.53454C10.9946 8.53454 11.0856 8.55229 11.1704 8.58678C11.2552 8.6213 11.3322 8.67183 11.3967 8.73547C11.4635 8.79749 11.5167 8.87203 11.553 8.95457C11.5893 9.03713 11.6081 9.12597 11.6081 9.21573C11.6081 9.30552 11.5893 9.39436 11.553 9.47692C11.5167 9.55946 11.4635 9.634 11.3967 9.69602L9.66204 11.4127L7.92733 9.75733C7.86055 9.6953 7.80739 9.62079 7.77106 9.53823C7.73473 9.45569 7.71601 9.36682 7.71601 9.27706C7.71601 9.18728 7.73473 9.09843 7.77106 9.01587C7.80739 8.93334 7.86055 8.8588 7.92733 8.79677V8.73547Z" fill="black"/>
<path d="M18.3804 13.5791C18.4782 13.6749 18.5944 13.7509 18.7226 13.8028C18.8507 13.8546 18.9881 13.8814 19.1269 13.8814C19.2657 13.8814 19.4031 13.8546 19.5312 13.8028C19.6593 13.7509 19.7756 13.6749 19.8733 13.5791L22.3439 11.1777C22.8082 10.72 23.0913 10.1177 23.1433 9.477C23.1954 8.83628 23.0131 8.19826 22.6285 7.67544C22.2439 7.15259 21.6818 6.7785 21.0412 6.61911C20.4006 6.45972 19.7226 6.52525 19.1269 6.80414C18.5302 6.50804 17.844 6.42995 17.1931 6.5841C16.5422 6.73827 15.9698 7.11442 15.5802 7.64413C15.1906 8.17383 15.0095 8.8219 15.07 9.47039C15.1305 10.1189 15.4285 10.7247 15.9098 11.1777L18.3804 13.5791ZM17.3922 8.73547C17.456 8.67056 17.5327 8.61889 17.6176 8.58358C17.7025 8.54827 17.7939 8.53007 17.8863 8.53007C17.9787 8.53007 18.0701 8.54827 18.155 8.58358C18.2399 8.61889 18.3166 8.67056 18.3804 8.73547C18.4782 8.83124 18.5944 8.90727 18.7226 8.95914C18.8507 9.01103 18.9881 9.03773 19.1269 9.03773C19.2657 9.03773 19.4031 9.01103 19.5312 8.95914C19.6593 8.90727 19.7756 8.83124 19.8733 8.73547C19.9379 8.67183 20.0148 8.6213 20.0996 8.58678C20.1845 8.55229 20.2755 8.53454 20.3674 8.53454C20.4594 8.53454 20.5504 8.55229 20.6353 8.58678C20.7201 8.6213 20.797 8.67183 20.8616 8.73547C20.9284 8.79749 20.9815 8.87203 21.0179 8.95457C21.0542 9.03713 21.0729 9.12597 21.0729 9.21573C21.0729 9.30552 21.0542 9.39436 21.0179 9.47692C20.9815 9.55946 20.9284 9.634 20.8616 9.69602L19.1269 11.4127L17.3922 9.75733C17.3254 9.6953 17.2722 9.62079 17.2359 9.53823C17.1996 9.45569 17.1809 9.36682 17.1809 9.27706C17.1809 9.18728 17.1996 9.09843 17.2359 9.01587C17.2722 8.93334 17.3254 8.8588 17.3922 8.79677V8.73547Z" fill="black"/>
<path d="M21.7525 14.8667C21.4736 14.8667 21.2062 14.9744 21.0091 15.166C20.8119 15.3576 20.7011 15.6175 20.7011 15.8886C20.7011 18.7089 17.873 20.9979 14.3931 20.9979C10.9132 20.9979 8.08508 18.7089 8.08508 15.8886C8.08508 15.6175 7.97431 15.3576 7.77717 15.166C7.58 14.9744 7.31258 14.8667 7.03374 14.8667C6.75492 14.8667 6.4875 14.9744 6.29033 15.166C6.09317 15.3576 5.98242 15.6175 5.98242 15.8886C5.98242 19.8329 9.75671 23.0416 14.3931 23.0416C19.0295 23.0416 22.8038 19.8329 22.8038 15.8886C22.8038 15.6175 22.693 15.3576 22.4959 15.166C22.2987 14.9744 22.0313 14.8667 21.7525 14.8667Z" fill="black"/>
<path d="M43.3636 18.0514H37.5934L36.4114 21.2342H33.4863L38.9359 7.30469H42.1415L47.5512 21.2342H44.5457L43.3636 18.0514ZM38.5152 15.5759H42.4422L40.4787 10.3106L38.5152 15.5759Z" fill="black"/>
<path d="M54.334 18.7194C54.9086 18.7194 55.456 18.6343 55.9769 18.464C56.4978 18.2806 56.952 18.0056 57.3393 17.6388C57.7269 17.2721 58.0339 16.8137 58.261 16.2636C58.4881 15.7004 58.6016 15.0389 58.6016 14.2793C58.6016 13.5196 58.4881 12.8647 58.261 12.3146C58.0339 11.7514 57.7269 11.2864 57.3393 10.9197C56.9653 10.5529 56.518 10.2779 55.9971 10.0945C55.4762 9.91114 54.9285 9.81944 54.3542 9.81944H52.1301V18.7194H54.334ZM49.3652 21.2342V7.30469H54.4543C55.4693 7.30469 56.4043 7.46186 57.2594 7.77621C58.1141 8.09054 58.8489 8.54898 59.4632 9.15146C60.0909 9.74088 60.5784 10.4678 60.9258 11.3323C61.2865 12.1967 61.4666 13.179 61.4666 14.2793C61.4666 15.3795 61.2865 16.3618 60.9258 17.2263C60.5784 18.0907 60.0909 18.8176 59.4632 19.407C58.8353 19.9964 58.094 20.4483 57.2392 20.7627C56.3844 21.077 55.4494 21.2342 54.4342 21.2342H49.3652Z" fill="black"/>
<path d="M68.8321 13.6506C69.5267 13.6506 70.0675 13.4737 70.4548 13.1201C70.8556 12.7534 71.0559 12.2687 71.0559 11.6662C71.0559 11.0375 70.8556 10.5464 70.4548 10.1927C70.0675 9.83911 69.5267 9.66229 68.8321 9.66229H66.6481V13.6506H68.8321ZM66.6282 15.9885V21.2342H63.8633V7.30469H69.1726C69.8672 7.30469 70.5015 7.41603 71.0761 7.63868C71.6504 7.84825 72.1444 8.14949 72.5585 8.54242C72.9726 8.92225 73.2866 9.38067 73.5002 9.9177C73.7273 10.4416 73.841 11.0179 73.841 11.6466C73.841 12.2753 73.7273 12.8581 73.5002 13.3951C73.2866 13.9322 72.9726 14.3906 72.5585 14.7704C72.1444 15.1502 71.6504 15.4515 71.0761 15.6742C70.5015 15.8837 69.8672 15.9885 69.1726 15.9885H66.6282Z" fill="black"/>
<path d="M75.9531 21.2342V7.30469H78.718V18.6408H85.0492V21.2342H75.9531Z" fill="black"/>
<path d="M86.969 21.2344V11.5682H89.6338V21.2344H86.969ZM86.6484 8.40509C86.6484 7.94667 86.8089 7.56029 87.1295 7.24594C87.4498 6.93159 87.8374 6.77441 88.2913 6.77441C88.7588 6.77441 89.1464 6.93159 89.4534 7.24594C89.774 7.56029 89.9342 7.94667 89.9342 8.40509C89.9342 8.83734 89.774 9.21061 89.4534 9.52496C89.1464 9.83931 88.7588 9.99649 88.2913 9.99649C87.8374 9.99649 87.4498 9.83931 87.1295 9.52496C86.8089 9.21061 86.6484 8.83734 86.6484 8.40509Z" fill="black"/>
<path d="M93.9247 18.0511C93.9516 18.4309 94.1117 18.7714 94.4055 19.0727C94.6993 19.3739 95.1402 19.5246 95.7278 19.5246C96.1687 19.5246 96.496 19.4329 96.7096 19.2495C96.9234 19.053 97.0302 18.8238 97.0302 18.5619C97.0302 18.3392 96.95 18.1493 96.7898 17.9921C96.6296 17.8219 96.3557 17.6974 95.9685 17.6188L94.6661 17.3241C93.7043 17.1146 93.003 16.7544 92.5623 16.2436C92.1217 15.7197 91.9012 15.1171 91.9012 14.4361C91.9012 14.0038 91.9947 13.5978 92.1817 13.218C92.3687 12.825 92.6224 12.491 92.943 12.216C93.2769 11.9278 93.6642 11.6986 94.1051 11.5284C94.5591 11.3581 95.0534 11.2729 95.5876 11.2729C96.2822 11.2729 96.87 11.3712 97.3508 11.5677C97.8316 11.751 98.2191 11.9868 98.5129 12.2749C98.82 12.5631 99.0471 12.8709 99.194 13.1983C99.3408 13.5127 99.4277 13.8008 99.4545 14.0628L97.2305 14.5539C97.2039 14.4099 97.1571 14.2658 97.0902 14.1217C97.0368 13.9645 96.9433 13.8205 96.8097 13.6895C96.6764 13.5585 96.5093 13.4537 96.309 13.3752C96.122 13.2966 95.8882 13.2573 95.6077 13.2573C95.2603 13.2573 94.9599 13.349 94.7062 13.5323C94.4656 13.7157 94.3455 13.9449 94.3455 14.22C94.3455 14.4557 94.4257 14.6456 94.5859 14.7897C94.7596 14.9338 94.9798 15.032 95.247 15.0844L96.6495 15.3791C97.6246 15.5756 98.3525 15.9423 98.8335 16.4793C99.3276 17.0163 99.5746 17.6385 99.5746 18.3457C99.5746 18.7387 99.4946 19.1251 99.3342 19.5049C99.1873 19.8848 98.9536 20.2253 98.633 20.5265C98.3126 20.8278 97.9118 21.0701 97.431 21.2535C96.9499 21.4368 96.389 21.5285 95.748 21.5285C95 21.5285 94.3721 21.4237 93.8647 21.2142C93.3571 21.0046 92.943 20.7492 92.6224 20.448C92.3018 20.1467 92.0614 19.8258 91.9012 19.4853C91.7543 19.1316 91.6674 18.8173 91.6406 18.5422L93.9247 18.0511Z" fill="black"/>
<path d="M105.004 11.5668H106.988V13.8851H105.004V17.9323C105.004 18.3514 105.097 18.6461 105.284 18.8164C105.485 18.9736 105.779 19.0521 106.166 19.0521C106.326 19.0521 106.487 19.0456 106.647 19.0325C106.807 19.0194 106.921 18.9998 106.988 18.9736V21.1347C106.867 21.1871 106.68 21.2395 106.427 21.2919C106.186 21.3442 105.872 21.3704 105.485 21.3704C104.523 21.3704 103.762 21.1085 103.201 20.5846C102.64 20.0607 102.359 19.3272 102.359 18.3842V13.8851H100.576V11.5668H101.077C101.598 11.5668 101.979 11.4227 102.219 11.1345C102.473 10.8333 102.6 10.4665 102.6 10.0343V8.67871H105.004V11.5668Z" fill="black"/>
</g>
<defs>
<clipPath id="clip0_4162_70939">
<rect width="106.273" height="26.5684" fill="white" transform="translate(0.726562 0.561523)"/>
</clipPath>
</defs>
</svg>
