<svg width="126" height="28" viewBox="0 0 126 28" fill="none" xmlns="http://www.w3.org/2000/svg">
<g clip-path="url(#clip0_4162_70921)">
<path d="M27.3864 11.2324C27.1991 10.0466 26.7305 8.8609 26.1681 7.76638C25.6058 8.13122 24.9499 8.31364 24.2001 8.31364C22.1382 8.31364 20.4514 6.67186 20.4514 4.66524C20.4514 3.84435 20.7325 3.11466 21.201 2.47619C19.7016 1.5641 18.1084 0.925624 16.3277 0.560783C15.578 0.378363 14.9219 1.01684 14.9219 1.74651V4.84766C14.9219 5.39491 15.2967 5.94218 15.8591 6.03338C18.6707 6.76307 20.9199 8.8609 21.6697 11.5972C21.8571 12.1444 22.3257 12.5093 22.888 12.5093H26.0744C26.918 12.6917 27.574 11.962 27.3864 11.2324Z" fill="black"/>
<path d="M6.29607 11.7793C7.04581 9.04293 9.29506 6.85389 12.1067 6.21542C12.669 6.033 13.0439 5.57695 13.0439 5.02968V1.83734C13.0439 1.10765 12.294 0.469184 11.638 0.651604C6.01491 1.65492 1.61013 5.85057 0.579228 11.232C0.39179 11.9616 1.04782 12.6913 1.79758 12.6913H5.07773C5.64003 12.6913 6.20235 12.2353 6.29607 11.7793Z" fill="black"/>
<path d="M12.1067 21.2654C9.29507 20.5357 7.04581 18.4379 6.29607 15.7016C6.10863 15.1544 5.64003 14.7896 5.07773 14.7896H1.79758C1.04782 14.7896 0.39179 15.5192 0.579228 16.2489C1.61013 21.6302 6.01491 25.8258 11.5443 26.8292C12.294 27.0117 12.9501 26.3731 12.9501 25.6435V22.5423C13.0439 21.8126 12.669 21.3566 12.1067 21.2654Z" fill="black"/>
<path d="M21.7633 15.6102C21.0135 18.3465 18.7643 20.4443 15.9528 21.174C15.3905 21.3565 15.0156 21.8125 15.0156 22.3598V25.4608C15.0156 26.1905 15.7654 26.8291 16.4214 26.6467C21.9508 25.6433 26.3556 21.4476 27.3864 16.0663C27.5739 15.3366 26.9179 14.6069 26.1681 14.6069H22.8879C22.3255 14.6981 21.8571 15.0629 21.7633 15.6102Z" fill="black"/>
<path d="M24.2921 1.10742C23.0736 1.10742 22.0429 1.65469 21.3867 2.47558C23.4485 3.75251 25.1355 5.57672 26.2602 7.76576C27.291 7.12729 28.0408 5.94156 28.0408 4.66462C28.0408 2.7492 26.3538 1.10742 24.2921 1.10742Z" fill="black"/>
<path d="M34.9075 23.8883C34.5524 23.8883 34.2645 23.606 34.2645 23.2577V10.6409C34.2645 10.2927 34.5524 10.0103 34.9075 10.0103H38.0763C38.4314 10.0103 38.7192 10.2927 38.7192 10.6409V23.2577C38.7192 23.606 38.4314 23.8883 38.0763 23.8883H34.9075ZM36.5064 8.09712C35.8076 8.09712 35.2253 7.86867 34.7595 7.41179C34.3131 6.93586 34.0898 6.36475 34.0898 5.69847C34.0898 5.01313 34.3131 4.44202 34.7595 3.98514C35.2253 3.52825 35.8076 3.2998 36.5064 3.2998C37.2052 3.2998 37.7778 3.52825 38.2242 3.98514C38.6706 4.44202 38.8939 5.01313 38.8939 5.69847C38.8939 6.36475 38.6706 6.93586 38.2242 7.41179C37.7778 7.86867 37.2052 8.09712 36.5064 8.09712Z" fill="black"/>
<path d="M42.3285 23.8887C41.9734 23.8887 41.6855 23.6063 41.6855 23.2581V4.35911C41.6855 4.01084 41.9734 3.72852 42.3285 3.72852H44.5952C44.8142 3.72852 45.018 3.83775 45.1363 4.01842L52.5918 15.4075C52.7857 15.7038 52.5688 16.093 52.2099 16.093C51.8514 16.093 51.6344 15.7044 51.8277 15.4081L59.2562 4.01928C59.3744 3.83812 59.5786 3.72852 59.7979 3.72852H62.0931C62.4481 3.72852 62.7359 4.01084 62.7359 4.3591V23.2581C62.7359 23.6063 62.4481 23.8887 62.0931 23.8887H58.8079C58.4527 23.8887 58.1649 23.6063 58.1649 23.2581V11.6904C58.1649 11.4899 58.357 11.3428 58.5554 11.3914C58.764 11.4426 58.8597 11.6795 58.7436 11.857L53.8999 19.2583C53.7817 19.439 53.5779 19.5483 53.3589 19.5483H51.0346C50.8151 19.5483 50.6107 19.4384 50.4926 19.2569L45.6669 11.8419C45.5556 11.671 45.6468 11.4434 45.847 11.3925C46.0396 11.3435 46.2276 11.4861 46.2276 11.6813V23.2581C46.2276 23.6063 45.9397 23.8887 45.5846 23.8887H42.3285Z" fill="black"/>
<path d="M72.5005 24.2024C71.0448 24.2024 69.7248 23.8883 68.5408 23.2601C67.3762 22.6128 66.4542 21.7371 65.7749 20.633C65.0955 19.5289 64.7559 18.2914 64.7559 16.9208C64.7559 15.5501 65.0955 14.3222 65.7749 13.2371C66.4542 12.152 67.3762 11.2954 68.5408 10.6671C69.7054 10.0198 71.0254 9.69629 72.5005 9.69629C73.9757 9.69629 75.2956 10.0104 76.4602 10.6386C77.6248 11.2668 78.5468 12.1329 79.2262 13.2371C79.9055 14.3222 80.2452 15.5501 80.2452 16.9208C80.2452 18.2914 79.9055 19.5289 79.2262 20.633C78.5468 21.7371 77.6248 22.6128 76.4602 23.2601C75.2956 23.8883 73.9757 24.2024 72.5005 24.2024ZM72.5005 20.2332C73.1411 20.2332 73.7039 20.1 74.1892 19.8335C74.6745 19.5479 75.0433 19.1577 75.2956 18.6627C75.5673 18.1486 75.7032 17.5681 75.7032 16.9208C75.7032 16.2735 75.5673 15.712 75.2956 15.236C75.0239 14.741 74.6454 14.3603 74.1601 14.0938C73.6943 13.8082 73.1411 13.6655 72.5005 13.6655C71.8794 13.6655 71.3262 13.8082 70.841 14.0938C70.3557 14.3603 69.9772 14.741 69.7054 15.236C69.4337 15.7309 69.2978 16.3021 69.2978 16.9493C69.2978 17.5775 69.4337 18.1486 69.7054 18.6627C69.9772 19.1577 70.3557 19.5479 70.841 19.8335C71.3262 20.1 71.8794 20.2332 72.5005 20.2332Z" fill="black"/>
<path d="M88.7211 24.2019C87.2653 24.2019 85.9454 23.8878 84.7614 23.2596C83.5773 22.6314 82.6456 21.7652 81.9663 20.6611C81.2869 19.5569 80.9473 18.3195 80.9473 16.9488C80.9473 15.5592 81.2869 14.3218 81.9663 13.2366C82.665 12.1325 83.6065 11.2663 84.7905 10.6381C85.9745 10.0099 87.3041 9.6958 88.7793 9.6958C89.8857 9.6958 90.895 9.8861 91.8073 10.2669C92.5503 10.5554 93.2255 10.9649 93.833 11.4955C94.0932 11.7229 94.0857 12.1157 93.8395 12.3574L91.9094 14.2501C91.6484 14.5061 91.225 14.4871 90.9257 14.2752C90.7216 14.1306 90.5011 14.0129 90.2642 13.9219C89.8372 13.7507 89.3422 13.665 88.7793 13.665C88.1388 13.665 87.5662 13.8077 87.0615 14.0933C86.5762 14.3599 86.188 14.7406 85.8969 15.2355C85.6251 15.7115 85.4892 16.273 85.4892 16.9203C85.4892 17.5676 85.6251 18.1387 85.8969 18.6336C86.188 19.1285 86.586 19.5188 87.0906 19.8044C87.5953 20.0899 88.1581 20.2327 88.7793 20.2327C89.3616 20.2327 89.876 20.1376 90.3224 19.9472C90.5727 19.8347 90.8033 19.7002 91.0144 19.5437C91.3099 19.3247 91.7361 19.3085 91.9967 19.5668L93.9017 21.4544C94.1461 21.6965 94.1517 22.0875 93.8943 22.3165C93.2713 22.8714 92.5852 23.3096 91.8364 23.6308C90.9047 24.0115 89.8662 24.2019 88.7211 24.2019Z" fill="black"/>
<path d="M105.731 23.888C105.376 23.888 105.088 23.6057 105.088 23.2574V15.9781C105.088 15.2548 104.855 14.6741 104.389 14.2363C103.943 13.7794 103.371 13.5509 102.672 13.5509C102.186 13.5509 101.759 13.6556 101.39 13.865C101.021 14.0554 100.731 14.341 100.517 14.7217C100.467 14.8074 100.422 14.8965 100.383 14.9887C100.202 15.4205 99.6972 15.7374 99.2697 15.5315L98.8386 15.3232C98.6183 15.2172 98.4761 14.9976 98.4891 14.7575C98.5393 13.8339 98.7689 13.0129 99.1777 12.2945C99.6433 11.4759 100.294 10.8476 101.128 10.4098C101.963 9.9529 102.924 9.7245 104.011 9.7245C105.117 9.7245 106.088 9.9529 106.922 10.4098C107.757 10.8476 108.397 11.4664 108.844 12.2659C109.31 13.0464 109.543 13.9602 109.543 15.0072V23.2574C109.543 23.6057 109.255 23.888 108.9 23.888H105.731ZM96.3852 23.888C96.0303 23.888 95.7422 23.6057 95.7422 23.2574V3.78733C95.7422 3.43906 96.0303 3.15674 96.3852 3.15674H99.5541C99.9091 3.15674 100.196 3.43907 100.196 3.78733V23.2574C100.196 23.6057 99.9091 23.888 99.5541 23.888H96.3852Z" fill="black"/>
<path d="M117.731 24.1732C116.431 24.1732 115.266 23.859 114.237 23.2309C113.228 22.6026 112.422 21.7459 111.821 20.6609C111.238 19.5758 110.947 18.3383 110.947 16.9486C110.947 15.559 111.238 14.3216 111.821 13.2364C112.422 12.1513 113.228 11.2947 114.237 10.6664C115.266 10.0382 116.431 9.72412 117.731 9.72412C118.682 9.72412 119.537 9.90494 120.293 10.2667C121.07 10.6283 121.7 11.1329 122.186 11.7801C122.671 12.4083 122.942 13.1317 123.001 13.9503V19.947C122.942 20.7655 122.671 21.4985 122.186 22.1458C121.72 22.774 121.099 23.2689 120.322 23.6306C119.546 23.9924 118.682 24.1732 117.731 24.1732ZM118.633 20.2325C119.585 20.2325 120.352 19.9279 120.933 19.3187C121.516 18.6905 121.807 17.9005 121.807 16.9486C121.807 16.3014 121.671 15.7302 121.4 15.2353C121.147 14.7403 120.778 14.3597 120.293 14.0931C119.827 13.8075 119.284 13.6648 118.663 13.6648C118.041 13.6648 117.488 13.8075 117.003 14.0931C116.537 14.3597 116.159 14.7403 115.868 15.2353C115.596 15.7302 115.46 16.3014 115.46 16.9486C115.46 17.5768 115.596 18.1385 115.868 18.6334C116.139 19.1283 116.518 19.5186 117.003 19.8042C117.488 20.0897 118.032 20.2325 118.633 20.2325ZM122.275 23.8876C121.92 23.8876 121.632 23.6053 121.632 23.257V20.2077C121.632 20.1673 121.637 20.1269 121.644 20.0871L122.278 16.8979C122.294 16.8183 122.294 16.7363 122.278 16.6567L121.644 13.4676C121.637 13.4277 121.632 13.3874 121.632 13.3469V10.6403C121.632 10.292 121.92 10.0097 122.275 10.0097H125.357C125.712 10.0097 126 10.292 126 10.6403V23.257C126 23.6053 125.712 23.8876 125.357 23.8876H122.275Z" fill="black"/>
</g>
<defs>
<clipPath id="clip0_4162_70921">
<rect width="125.453" height="27.3423" fill="white" transform="translate(0.546875 0.0737305)"/>
</clipPath>
</defs>
</svg>
