<svg width="122" height="44" viewBox="0 0 122 44" fill="none" xmlns="http://www.w3.org/2000/svg">
<path d="M13.3984 13.8196C14.7183 13.8196 16.0401 13.8196 17.4029 13.8196C17.4029 14.6862 17.4029 15.5303 17.4029 16.4848C18.4671 14.2576 20.2593 13.449 22.4808 13.4977C24.7211 13.5464 26.4219 14.5533 27.4319 16.5859C27.7884 16.1292 28.1133 15.6314 28.5184 15.2139C29.5526 14.1472 30.852 13.6381 32.3175 13.5164C33.2864 13.436 34.2404 13.5202 35.1645 13.8328C36.8728 14.4073 37.9238 15.6351 38.5268 17.2896C38.9599 18.4781 39.0812 19.719 39.0832 20.9749C39.0868 23.8983 39.085 26.8218 39.085 29.7453C39.085 29.8182 39.0757 29.8931 39.0682 29.996C37.7632 29.996 36.4639 29.996 35.1197 29.996C35.1197 29.85 35.1197 29.7059 35.1197 29.5618C35.1197 26.8479 35.1346 24.1359 35.1085 21.4221C35.1029 20.7989 35.0301 20.1551 34.8583 19.558C34.5055 18.3358 33.6766 17.5516 32.3922 17.4057C30.9378 17.2409 29.7002 17.662 28.8992 18.9871C28.5072 19.6348 28.313 20.3534 28.3056 21.1058C28.2776 23.9039 28.2664 26.702 28.2514 29.5019C28.2514 29.661 28.2514 29.82 28.2514 30.0035C26.9073 30.0035 25.593 30.0035 24.2357 30.0035C24.2357 29.8482 24.2357 29.7021 24.2357 29.558C24.2339 26.6589 24.2414 23.7598 24.2208 20.8606C24.2133 19.9249 23.9725 19.0358 23.3322 18.3227C22.339 17.2167 21.0826 17.1792 19.7889 17.5928C18.3065 18.0664 17.655 19.2248 17.4832 20.6978C17.4235 21.2126 17.4216 21.7365 17.4198 22.2551C17.4141 24.6825 17.4179 27.1118 17.4179 29.5393C17.4179 29.6854 17.4179 29.8332 17.4179 30.0278C16.0606 30.0278 14.7295 30.0278 13.4004 30.0278C13.3984 24.6226 13.3984 19.2211 13.3984 13.8196Z" fill="black"/>
<path d="M54.7748 15.7391C54.7748 15.1813 54.7748 14.5225 54.7748 13.8413C56.117 13.8413 57.422 13.8413 58.7568 13.8413C58.7568 19.2109 58.7568 24.5899 58.7568 29.9952C57.4537 29.9952 56.1413 29.9952 54.7953 29.9952C54.7953 29.3196 54.7953 28.6439 54.7953 27.9458C54.728 27.9683 54.6851 27.9683 54.6683 27.9907C53.6061 29.4318 52.0995 30.0944 50.3969 30.2984C47.7869 30.6128 45.5149 29.8323 43.6854 27.9139C42.3674 26.5327 41.699 24.8445 41.5086 22.9541C41.3051 20.9422 41.5889 19.0126 42.6474 17.2757C44.2959 14.5712 46.7639 13.3602 49.9022 13.5081C51.3528 13.5774 52.6819 14.0209 53.8319 14.938C54.1661 15.2057 54.4854 15.4921 54.7748 15.7391ZM50.0254 17.2327C47.4584 17.2345 45.5131 19.2278 45.5094 21.8592C45.5056 24.5132 47.4845 26.5889 50.0291 26.5964C52.6408 26.6057 54.7132 24.5114 54.7094 21.8705C54.7038 19.2915 52.6222 17.2308 50.0254 17.2327Z" fill="black"/>
<path d="M89.1342 15.7494C89.1342 15.1804 89.1342 14.5197 89.1342 13.8404C90.4765 13.8404 91.7814 13.8404 93.1143 13.8404C93.1143 19.2157 93.1143 24.5947 93.1143 29.998C91.8057 29.998 90.4933 29.998 89.1472 29.998C89.1472 29.3168 89.1472 28.643 89.1472 27.9C88.8336 28.2313 88.589 28.5363 88.2996 28.7871C86.9854 29.9251 85.4116 30.3798 83.7146 30.3687C81.478 30.3537 79.5458 29.5395 78.0094 27.8868C76.6839 26.4588 76.0155 24.737 75.8494 22.8036C75.6739 20.7616 75.9987 18.817 77.1188 17.0839C78.7786 14.5179 81.1943 13.3688 84.2224 13.5072C85.686 13.5746 87.0283 14.0163 88.1876 14.9427C88.5218 15.2104 88.8374 15.4968 89.1342 15.7494ZM84.3736 17.2336C81.8085 17.2374 79.8632 19.2325 79.8613 21.864C79.8595 24.5161 81.8421 26.5918 84.3848 26.5973C86.9984 26.603 89.0689 24.5086 89.0614 21.8678C89.0557 19.2887 86.9742 17.2299 84.3736 17.2336Z" fill="black"/>
<path d="M73.7228 18.5211C72.4589 18.5211 71.2044 18.5211 69.9536 18.5211C69.5465 16.8535 67.8309 16.1572 66.4064 17.0706C65.3629 17.7407 65.3871 19.0789 66.5054 19.5935C67.2018 19.9154 67.9746 20.0727 68.7195 20.2842C69.8677 20.6098 71.0419 20.8494 72.0817 21.4839C74.3425 22.8633 74.9736 25.7586 73.4447 27.8979C72.625 29.0433 71.4451 29.6778 70.114 30.0353C67.9429 30.6192 65.8314 30.4976 63.8525 29.3502C62.2507 28.4201 61.3341 27.0238 61.1903 25.1503C61.1866 25.1036 61.196 25.0549 61.1997 24.9875C62.4412 24.9875 63.6715 24.9875 64.9335 24.9875C65.0623 26.0993 65.7231 26.7525 66.7855 27.0108C67.6516 27.2203 68.5048 27.1436 69.3095 26.745C69.9965 26.4043 70.2971 25.8466 70.2298 25.1597C70.1757 24.6114 69.8415 24.2651 69.3729 24.0929C68.7046 23.8478 68.012 23.6661 67.3231 23.4808C66.2179 23.1833 65.1089 22.91 64.084 22.3636C61.5787 21.0272 61.168 18.2721 62.0641 16.4698C62.6969 15.1953 63.7554 14.3755 65.0735 13.9301C67.3642 13.157 69.6044 13.2974 71.6878 14.5888C73.06 15.4405 73.6985 16.7542 73.7508 18.3602C73.7545 18.4089 73.7378 18.4556 73.7228 18.5211Z" fill="black"/>
<path d="M100.644 13.853C100.644 19.2377 100.644 24.6074 100.644 29.9995C99.317 29.9995 98.0046 29.9995 96.668 29.9995C96.668 24.6204 96.668 19.2527 96.668 13.853C97.9766 13.853 99.289 13.853 100.644 13.853Z" fill="black"/>
<path d="M100.646 13.853H96.6719V24.7496L100.646 19.8403V13.853Z" fill="#040404"/>
<path d="M100.646 13.853H96.6719V24.7496L100.646 19.8403V13.853Z" fill="#8A8A8A"/>
<path d="M98.6387 10.207C99.877 10.207 100.881 9.20066 100.881 7.95924C100.881 6.7178 99.877 5.71143 98.6387 5.71143C97.4004 5.71143 96.3965 6.7178 96.3965 7.95924C96.3965 9.20066 97.4004 10.207 98.6387 10.207Z" fill="black"/>
<path d="M103.426 28.2611C103.426 27.8701 103.519 27.5071 103.705 27.1721C103.892 26.8372 104.151 26.5739 104.481 26.3822C104.813 26.1886 105.17 26.0918 105.554 26.0918C105.938 26.0918 106.295 26.1886 106.624 26.3822C106.954 26.5739 107.212 26.8372 107.397 27.1721C107.585 27.5071 107.679 27.8701 107.679 28.2611C107.679 28.6425 107.59 28.9998 107.409 29.3328C107.23 29.6658 106.974 29.9339 106.642 30.1371C106.313 30.3385 105.95 30.4392 105.554 30.4392C105.16 30.4392 104.798 30.3395 104.466 30.1401C104.136 29.9387 103.88 29.6715 103.699 29.3385C103.517 29.0055 103.426 28.6464 103.426 28.2611ZM103.771 28.2611C103.771 28.5941 103.85 28.9029 104.01 29.1876C104.17 29.4701 104.387 29.6919 104.661 29.8526C104.937 30.0132 105.234 30.0936 105.554 30.0936C105.876 30.0936 106.175 30.0123 106.45 29.8497C106.726 29.6851 106.942 29.4624 107.098 29.1817C107.255 28.901 107.334 28.5941 107.334 28.2611C107.334 27.9301 107.255 27.6251 107.098 27.3463C106.942 27.0656 106.726 26.8449 106.45 26.6842C106.175 26.5216 105.876 26.4402 105.554 26.4402C105.234 26.4402 104.937 26.5207 104.661 26.6813C104.385 26.8401 104.167 27.0608 104.007 27.3434C103.849 27.6261 103.771 27.932 103.771 28.2611ZM105.114 28.4789V29.4605H104.691V26.995H105.518C105.824 26.995 106.061 27.0589 106.229 27.1866C106.398 27.3124 106.483 27.4964 106.483 27.7384C106.483 27.9765 106.355 28.1585 106.1 28.2844C106.343 28.3811 106.466 28.5786 106.468 28.8768V29.0539C106.468 29.2204 106.485 29.3405 106.519 29.4141V29.4605H106.085C106.057 29.3908 106.043 29.2669 106.043 29.0888C106.043 28.9087 106.04 28.8023 106.034 28.7693C106.002 28.5835 105.871 28.4867 105.641 28.4789H105.114ZM105.114 28.1072H105.581C105.725 28.1033 105.841 28.0694 105.929 28.0056C106.017 27.9417 106.061 27.8575 106.061 27.7529C106.061 27.6116 106.022 27.5119 105.944 27.4538C105.866 27.3938 105.727 27.3637 105.527 27.3637H105.114V28.1072Z" fill="black"/>
</svg>
