<svg width="172" height="24" viewBox="0 0 172 24" fill="none" xmlns="http://www.w3.org/2000/svg">
<g clip-path="url(#clip0_4162_70892)">
<path d="M32.3884 4.30371H35.8254L42.9 15.2387H42.9502V4.30371H45.5593V19.0356H42.2729L35.0226 7.74621H34.9724V19.0356H32.3633V4.30371H32.3884Z" fill="black"/>
<path d="M50.4527 14.9099C50.6283 16.378 51.7322 17.2893 53.112 17.2893C54.3413 17.2893 55.1441 16.7071 55.7713 15.9477L57.5525 17.2893C56.3985 18.7321 54.9434 19.2889 53.3629 19.2889C50.3775 19.2889 47.9941 17.188 47.9941 14.0493C47.9941 10.9105 50.3775 8.80957 53.3629 8.80957C56.1225 8.80957 58.0041 10.7586 58.0041 14.2264V14.9099H50.4527ZM55.5204 13.0368C55.4953 11.5939 54.542 10.6574 53.0116 10.6574C51.5566 10.6574 50.6534 11.5939 50.4527 13.0368H55.5204Z" fill="black"/>
<path d="M58.8574 9.06201H61.5418L63.6742 16.0483H63.7244L65.7314 9.06201H68.4158L70.5482 16.0483H70.5984L72.6555 9.06201H75.1392L71.7775 19.0351H69.3189L66.9607 12.2261H66.9105L64.8282 19.0351H62.2693L58.8574 9.06201Z" fill="black"/>
<path d="M75.3398 11.1632V9.03699H77.3719V6.15137H79.8556V9.03699H82.5651V11.1632H79.8556V15.5423C79.8556 16.5295 80.1567 17.1623 81.2354 17.1623C81.6619 17.1623 82.264 17.0864 82.5651 16.8585V18.9595C82.0382 19.2126 81.1852 19.2885 80.6082 19.2885C77.9991 19.2885 77.3719 18.0989 77.3719 15.7448V11.1632H75.3398Z" fill="black"/>
<path d="M89.3123 8.80957C92.2977 8.80957 94.681 10.9105 94.681 14.0493C94.681 17.188 92.2977 19.2889 89.3123 19.2889C86.3269 19.2889 83.9436 17.188 83.9436 14.0493C83.9185 10.9105 86.3018 8.80957 89.3123 8.80957ZM89.3123 17.0361C91.1186 17.0361 92.2224 15.5933 92.2224 14.0493C92.2224 12.4799 91.1186 11.0624 89.3123 11.0624C87.506 11.0624 86.4021 12.5052 86.4021 14.0493C86.4021 15.5933 87.4809 17.0361 89.3123 17.0361Z" fill="black"/>
<path d="M96.8867 9.0627H99.2449V10.6574H99.2951C99.7467 9.6702 100.675 8.80957 102.331 8.80957C104.99 8.80957 105.943 10.708 105.943 12.733V19.0358H103.46V13.9733C103.46 12.8596 103.384 11.0371 101.653 11.0371C100.023 11.0371 99.3955 12.2521 99.3955 13.5683V19.0358H96.9118V9.0627H96.8867Z" fill="black"/>
<path d="M114.502 16.3012C114.853 16.934 115.329 17.3897 115.881 17.6934C116.458 17.9972 117.111 18.149 117.838 18.149C118.29 18.149 118.716 18.0731 119.118 17.9465C119.519 17.82 119.87 17.6175 120.146 17.3643C120.447 17.1112 120.673 16.8075 120.849 16.4531C121.024 16.0987 121.1 15.6937 121.1 15.2634C121.1 14.7572 120.999 14.3268 120.773 13.9978C120.548 13.6687 120.272 13.3903 119.92 13.1878C119.569 12.9853 119.168 12.7828 118.716 12.6309C118.265 12.479 117.813 12.3272 117.336 12.1753C116.86 12.0234 116.408 11.8462 115.957 11.6437C115.505 11.4412 115.104 11.1881 114.752 10.8844C114.401 10.5806 114.1 10.1756 113.899 9.71998C113.699 9.23904 113.573 8.65685 113.573 7.97342C113.573 7.31529 113.699 6.7331 113.95 6.22685C114.2 5.7206 114.552 5.29029 114.978 4.96123C115.405 4.63217 115.906 4.35373 116.483 4.20186C117.035 4.02467 117.637 3.94873 118.265 3.94873C119.067 3.94873 119.795 4.1006 120.472 4.37904C121.15 4.65748 121.752 5.13842 122.228 5.79654L121.074 6.63185C120.723 6.15092 120.322 5.77123 119.87 5.54342C119.419 5.29029 118.867 5.18904 118.24 5.18904C117.788 5.18904 117.387 5.23967 116.985 5.36623C116.584 5.49279 116.233 5.64467 115.957 5.89779C115.656 6.1256 115.43 6.40404 115.254 6.75842C115.079 7.11279 114.978 7.51779 114.978 7.97342C114.978 8.70748 115.154 9.26435 115.53 9.66935C115.906 10.0744 116.358 10.3781 116.91 10.6059C117.462 10.8337 118.064 11.0362 118.716 11.2134C119.368 11.3906 119.971 11.6184 120.523 11.9222C121.074 12.2006 121.551 12.6309 121.902 13.1372C122.279 13.6687 122.454 14.3775 122.454 15.2887C122.454 15.9468 122.329 16.5543 122.078 17.0606C121.827 17.5668 121.501 17.9972 121.074 18.3515C120.648 18.7059 120.171 18.9843 119.619 19.1615C119.067 19.3387 118.49 19.44 117.913 19.44C116.96 19.44 116.057 19.2628 115.254 18.9337C114.451 18.6047 113.749 18.0225 113.172 17.2125L114.502 16.3012Z" fill="black"/>
<path d="M133.093 17.6176C132.616 18.1745 132.089 18.6048 131.512 18.8832C130.91 19.1617 130.283 19.2882 129.605 19.2882C128.878 19.2882 128.201 19.1617 127.573 18.9085C126.946 18.6554 126.419 18.301 125.993 17.8707C125.541 17.4151 125.215 16.8835 124.964 16.276C124.713 15.6686 124.588 14.9851 124.588 14.2511C124.588 13.517 124.713 12.8336 124.964 12.2261C125.215 11.6186 125.566 11.087 125.993 10.6314C126.444 10.1757 126.971 9.82137 127.573 9.59355C128.201 9.34043 128.853 9.21387 129.605 9.21387C130.308 9.21387 130.96 9.36574 131.562 9.64418C132.164 9.94793 132.691 10.3529 133.168 10.8592L132.189 11.6186C131.838 11.2136 131.437 10.9098 131.01 10.682C130.584 10.4542 130.132 10.3276 129.631 10.3276C129.053 10.3276 128.527 10.4289 128.075 10.6314C127.598 10.8339 127.197 11.1123 126.871 11.4667C126.545 11.8211 126.294 12.2261 126.118 12.707C125.943 13.1879 125.867 13.6942 125.867 14.2257C125.867 14.7573 125.943 15.2636 126.118 15.7445C126.294 16.2254 126.545 16.6304 126.871 16.9848C127.197 17.3392 127.598 17.6176 128.075 17.8201C128.552 18.0226 129.053 18.1239 129.631 18.1239C130.157 18.1239 130.634 17.9973 131.061 17.7695C131.487 17.5164 131.863 17.2126 132.189 16.8076L133.093 17.6176Z" fill="black"/>
<path d="M134.922 3.31543H136.151V11.1117H136.201C136.452 10.5801 136.854 10.1245 137.431 9.7448C138.008 9.36511 138.685 9.16261 139.463 9.16261C140.215 9.16261 140.817 9.28918 141.269 9.51699C141.746 9.7448 142.097 10.0739 142.373 10.4535C142.649 10.8332 142.824 11.2635 142.925 11.7698C143.025 12.276 143.075 12.7823 143.075 13.3139V19.0345H141.846V13.3898C141.846 13.0101 141.821 12.6304 141.746 12.2507C141.67 11.8964 141.545 11.542 141.394 11.2635C141.219 10.9851 140.993 10.732 140.667 10.5548C140.366 10.3776 139.964 10.3017 139.463 10.3017C139.011 10.3017 138.585 10.3776 138.183 10.5295C137.782 10.6814 137.431 10.9345 137.13 11.2635C136.829 11.5926 136.603 11.9976 136.427 12.4785C136.252 12.9595 136.176 13.5417 136.176 14.2251V19.0345H134.947V3.31543H134.922Z" fill="black"/>
<path d="M145.732 14.2257C145.732 13.4916 145.858 12.8082 146.109 12.2007C146.36 11.5932 146.711 11.0616 147.137 10.606C147.589 10.1504 148.116 9.79598 148.718 9.56816C149.345 9.31504 149.997 9.18848 150.75 9.18848C151.477 9.18848 152.155 9.31504 152.757 9.56816C153.359 9.82129 153.886 10.1757 154.337 10.606C154.789 11.0616 155.14 11.5932 155.366 12.2007C155.617 12.8082 155.742 13.4916 155.742 14.2257C155.742 14.9597 155.617 15.6432 155.366 16.2507C155.115 16.8582 154.764 17.3897 154.337 17.8453C153.886 18.301 153.359 18.6553 152.757 18.8832C152.155 19.1363 151.477 19.2628 150.75 19.2628C150.022 19.2628 149.345 19.1363 148.718 18.8832C148.091 18.63 147.564 18.2757 147.137 17.8453C146.686 17.3897 146.36 16.8582 146.109 16.2507C145.858 15.6432 145.732 14.9597 145.732 14.2257ZM146.987 14.2257C146.987 14.7572 147.062 15.2635 147.238 15.7444C147.413 16.2253 147.664 16.6303 147.99 16.9847C148.316 17.3391 148.718 17.6175 149.194 17.82C149.671 18.0225 150.173 18.1238 150.75 18.1238C151.327 18.1238 151.854 18.0225 152.305 17.82C152.757 17.6175 153.183 17.3391 153.51 16.9847C153.836 16.6303 154.087 16.2253 154.262 15.7444C154.438 15.2635 154.513 14.7572 154.513 14.2257C154.513 13.6941 154.438 13.1878 154.262 12.7069C154.087 12.226 153.836 11.821 153.51 11.4666C153.183 11.1122 152.782 10.8338 152.305 10.6313C151.829 10.4288 151.327 10.3275 150.75 10.3275C150.173 10.3275 149.646 10.4288 149.194 10.6313C148.718 10.8338 148.316 11.1122 147.99 11.4666C147.664 11.821 147.413 12.226 147.238 12.7069C147.062 13.1878 146.987 13.6941 146.987 14.2257Z" fill="black"/>
<path d="M157.879 14.2257C157.879 13.4916 158.004 12.8082 158.255 12.2007C158.506 11.5932 158.857 11.0616 159.284 10.606C159.735 10.1504 160.262 9.79598 160.864 9.56816C161.491 9.31504 162.144 9.18848 162.896 9.18848C163.624 9.18848 164.301 9.31504 164.903 9.56816C165.506 9.82129 166.032 10.1757 166.484 10.606C166.935 11.0616 167.287 11.5932 167.513 12.2007C167.763 12.8082 167.889 13.4916 167.889 14.2257C167.889 14.9597 167.763 15.6432 167.513 16.2507C167.262 16.8582 166.91 17.3897 166.484 17.8453C166.032 18.301 165.506 18.6553 164.903 18.8832C164.301 19.1363 163.624 19.2628 162.896 19.2628C162.169 19.2628 161.491 19.1363 160.864 18.8832C160.237 18.63 159.71 18.2757 159.284 17.8453C158.832 17.3897 158.506 16.8582 158.255 16.2507C158.004 15.6432 157.879 14.9597 157.879 14.2257ZM159.133 14.2257C159.133 14.7572 159.209 15.2635 159.384 15.7444C159.56 16.2253 159.811 16.6303 160.137 16.9847C160.463 17.3391 160.864 17.6175 161.341 17.82C161.818 18.0225 162.319 18.1238 162.896 18.1238C163.473 18.1238 164 18.0225 164.452 17.82C164.928 17.6175 165.33 17.3391 165.656 16.9847C165.982 16.6303 166.233 16.2253 166.409 15.7444C166.584 15.2635 166.66 14.7572 166.66 14.2257C166.66 13.6941 166.584 13.1878 166.409 12.7069C166.233 12.226 165.982 11.821 165.656 11.4666C165.33 11.1122 164.928 10.8338 164.452 10.6313C163.975 10.4288 163.473 10.3275 162.896 10.3275C162.319 10.3275 161.793 10.4288 161.341 10.6313C160.864 10.8338 160.463 11.1122 160.137 11.4666C159.811 11.821 159.56 12.226 159.384 12.7069C159.209 13.1878 159.133 13.6941 159.133 14.2257Z" fill="black"/>
<path d="M170.77 3.31543H171.999V19.0345H170.77V3.31543Z" fill="black"/>
<path d="M11.3145 0.329102C5.06768 0.329102 0 5.44222 0 11.745C0 18.0478 5.06768 23.161 11.3145 23.161C17.5613 23.161 22.6289 18.0478 22.6289 11.745V0.329102H11.3145Z" fill="black"/>
<path d="M11.3166 0.329102C9.25939 0.329102 7.32765 0.885976 5.67188 1.84785V21.5916C7.32765 22.5535 9.25939 23.1103 11.3166 23.1103V0.329102Z" fill="#828282"/>
<path d="M11.3148 0.329102C9.45834 0.329102 7.70221 0.784727 6.17188 1.56941L16.2821 21.9713C16.3574 21.9207 16.4578 21.8953 16.533 21.8447C16.6083 21.7941 16.7086 21.7435 16.7839 21.7182C16.8592 21.6675 16.9595 21.6169 17.0348 21.5663C17.11 21.5156 17.2104 21.465 17.2856 21.4144L20.0202 17.7694L11.3148 0.329102Z" fill="#CCCCCC"/>
<path d="M16.8363 0.329102C16.8112 3.21472 16.761 16.2 16.7861 21.6928C20.2482 19.7438 22.5813 16.0228 22.5813 11.7197V0.329102H16.8363Z" fill="#828282"/>
</g>
<defs>
<clipPath id="clip0_4162_70892">
<rect width="172" height="22.8319" fill="white" transform="translate(0 0.329102)"/>
</clipPath>
</defs>
</svg>
