<svg width="120" height="24" viewBox="0 0 120 24" fill="none" xmlns="http://www.w3.org/2000/svg">
<g clip-path="url(#clip0_4162_70952)">
<path fill-rule="evenodd" clip-rule="evenodd" d="M18.2965 2.28572L8.69266 16.3678L0.338228 4.3636C0.338228 4.3636 -0.422785 3.25354 0.338228 1.99429C0.338228 1.99429 0.59038 1.43617 1.24582 1.03266C1.56329 0.837854 1.98177 0.679385 2.51114 0.638415C2.51114 0.638415 3.20152 0.581985 4.28608 1.0427C4.28608 1.0427 9.5038 3.1917 18.2965 2.28649V2.28572Z" fill="#7B7B7B"/>
<path fill-rule="evenodd" clip-rule="evenodd" d="M26.2782 0.660357C26.2782 0.660357 26.6413 0.665768 27.0848 0.808777C27.5793 0.967246 28.1337 1.2896 28.4511 1.99072C28.4511 1.99072 29.0663 3.13711 28.2848 4.36003L16.5787 21.7831C16.5787 21.7831 15.8777 22.9295 14.5524 23.0524C14.5524 23.0524 13.2666 23.1954 12.3992 21.6146L8.62305 16.2676L18.2929 2.28756C18.2929 2.28756 22.4724 1.70393 25.2704 0.844336C25.2704 0.844336 25.941 0.634847 26.279 0.660357H26.2782Z" fill="#585858"/>
<path fill-rule="evenodd" clip-rule="evenodd" d="M14.4653 23.0502H5.66735C5.35444 23.0347 5.1076 22.8708 5.1076 22.8708C4.53798 22.298 4.92077 21.6835 4.92077 21.6835L8.61646 16.27L13.0884 22.39C13.0937 22.39 13.5122 23.0293 14.4646 23.0502H14.4653Z" fill="#202020"/>
<path d="M41.0309 15.9289L36.644 6.27854H34.4863L39.9972 18.2372L39.7048 18.8973C39.0797 20.3197 38.2527 21.0053 37.1787 21.0053C36.6289 21.0053 35.9841 20.8724 35.5299 20.6621L34.8137 20.3297V22.4377L35.1562 22.5552C35.842 22.7856 36.6235 22.9286 37.238 22.9286C40.1522 22.9286 41.2914 20.2315 41.7752 19.0805L47.1205 6.28317H45.003L41.0301 15.9289H41.0309ZM53.1608 6.04818C49.7377 6.04818 47.1562 8.67799 47.1562 12.1682C47.1562 15.6429 49.7172 18.2627 53.1152 18.2627C55.399 18.2627 57.4815 17.0552 58.4294 15.1822L58.6663 14.7168L56.9727 13.8827L56.7456 14.3179C56.0704 15.6128 54.6934 16.4105 53.1608 16.4105C51.1747 16.4105 49.5866 15.0647 49.2084 13.136H58.8175L58.8881 12.7116C58.9185 12.5276 58.9382 12.2153 58.9382 11.9595C58.9435 8.53498 56.5132 6.04818 53.1608 6.04818ZM49.1727 11.3132C49.3212 10.3543 49.8039 9.48178 50.5323 8.85514C51.2608 8.22851 52.1865 7.8896 53.1403 7.90033C55.1263 7.90033 56.6643 9.30723 56.9567 11.3132H49.1727ZM62.836 0.905273H60.9V18.0315H62.836V0.905273ZM67.6603 0.905273H65.7243V18.0315H67.6603V0.905273ZM75.6213 6.0273C72.1982 6.0273 69.6167 8.66794 69.6167 12.1674C69.6167 15.6421 72.1982 18.2619 75.6213 18.2619C79.0595 18.2619 81.6509 15.6421 81.6509 12.1674C81.6509 8.66717 79.0595 6.0273 75.6213 6.0273ZM79.6899 12.1674C79.6899 14.5622 77.9499 16.3634 75.641 16.3634C73.3223 16.3634 71.5724 14.5568 71.5724 12.1674C71.5724 9.76254 73.3215 7.94594 75.641 7.94594C77.9499 7.94594 79.6899 9.76254 79.6899 12.1674ZM97.7734 6.27854L94.5927 14.7624L91.6884 6.27854H90.0904L87.1861 14.7678L83.9795 6.27854H81.8521L86.4403 18.0323H88.0033L90.897 9.55846L93.7557 18.0323H95.3187L99.9061 6.27854H97.7734ZM100.708 15.653C99.9668 15.653 99.3668 16.2513 99.3668 16.9934C99.3668 17.7556 99.9418 18.3338 100.708 18.3338C101.433 18.3338 102.004 17.7455 102.004 16.9934C102.004 16.2567 101.419 15.653 100.708 15.653ZM112.853 7.7465C111.814 6.66195 110.388 6.04818 108.81 6.04818C105.503 6.04818 103.007 8.67799 103.007 12.1682C103.007 15.6429 105.492 18.2627 108.785 18.2627C110.367 18.2627 111.804 17.6381 112.853 16.5381V18.0323H114.789V6.27776H112.853V7.7465ZM112.833 12.0963C112.833 14.5267 111.134 16.3641 108.875 16.3641C106.662 16.3641 104.988 14.5576 104.988 12.1682C104.988 9.76331 106.667 7.94671 108.895 7.94671C111.144 7.94671 112.833 9.73239 112.833 12.0963ZM119.619 6.27854H117.658V18.0323H119.619V6.27854ZM120.002 3.87367C120.002 3.11147 119.392 2.51238 118.615 2.51238C117.849 2.51238 117.249 3.1107 117.249 3.87367C117.246 4.05791 117.279 4.24091 117.347 4.41194C117.414 4.58296 117.514 4.73856 117.642 4.86961C117.769 5.00066 117.921 5.10452 118.088 5.17509C118.255 5.24566 118.434 5.28152 118.615 5.28057C119.402 5.28057 120.002 4.67684 120.002 3.87367Z" fill="black"/>
</g>
<defs>
<clipPath id="clip0_4162_70952">
<rect width="120" height="22.4176" fill="white" transform="translate(0 0.637207)"/>
</clipPath>
</defs>
</svg>
